<?xml version="1.0" encoding="UTF-8" standalone="no"?>
<!DOCTYPE svg PUBLIC "-//W3C//DTD SVG 1.1//EN" "http://www.w3.org/Graphics/SVG/1.1/DTD/svg11.dtd">
<svg width="100%" height="100%" viewBox="0 0 7905 7324" version="1.1" xmlns="http://www.w3.org/2000/svg" xmlns:xlink="http://www.w3.org/1999/xlink" xml:space="preserve" xmlns:serif="http://www.serif.com/" style="fill-rule:evenodd;clip-rule:evenodd;stroke-linecap:round;stroke-linejoin:round;stroke-miterlimit:1.5;">
    <g transform="matrix(1,0,0,1,-15328,0)">
        <g id="Mesa-de-trabajo1" serif:id="Mesa de trabajo1" transform="matrix(1,0,0,1,-0.388906,0)">
            <rect x="15328.389" y="0" width="7904.44" height="7323.874" style="fill:none;"/>
            <g transform="matrix(3.571303,0,0,3.571303,-10740.25529,-4071.201844)">
                <path d="M8470.332,2079.982C8463.71,2018.772 8415.939,1954.577 8329.299,1951.658C8281.971,1950.064 8227.565,1990.4 8193.26,2053.162C8050.401,2314.525 7692.284,2356.023 7492.903,2141.238L7498.022,2141.238C7515.222,2141.238 7529.185,2127.274 7529.185,2110.075C7529.185,2092.875 7515.222,2078.912 7498.022,2078.912L7444.915,2078.912L7444.915,2078.458L7444.368,2078.458C7431.65,2058.464 7420.757,2037.689 7411.668,2016.359C7412.905,2016.209 7414.165,2016.132 7415.442,2016.132L7444.915,2016.132L7444.915,2015.678L7536.214,2015.678C7553.413,2015.678 7567.377,2001.715 7567.377,1984.515C7567.377,1967.316 7553.413,1953.352 7536.214,1953.352L7444.915,1953.352L7444.915,1952.899L7431.74,1952.899C7414.541,1952.899 7400.577,1938.935 7400.577,1921.736C7400.577,1904.536 7414.541,1890.573 7431.74,1890.573L7444.915,1890.573L7444.915,1890.119L7503.618,1890.119C7520.818,1890.119 7534.781,1876.155 7534.781,1858.956C7534.781,1841.756 7520.818,1827.793 7503.618,1827.793L7444.915,1827.793L7444.915,1827.339L7402.404,1827.339C7392.542,1827.339 7383.743,1822.748 7378.032,1815.588C7379.042,1800.845 7380.793,1786.154 7383.279,1771.578C7388.56,1767.464 7395.198,1765.013 7402.404,1765.013L7413.915,1765.013L7413.915,1764.559L7447.129,1764.559C7464.328,1764.559 7478.292,1750.596 7478.292,1733.396C7478.292,1716.197 7464.328,1702.233 7447.129,1702.233L7401.009,1702.233C7426.193,1629.175 7471.021,1561.962 7534.703,1509.411C7719.968,1356.526 7998.32,1384.212 8149.972,1572.146C8185.229,1621.863 8173.204,1694.174 8123.676,1729.797L8110.149,1739.525C8078.498,1762.29 8039.043,1766.38 8004.955,1753.946L8004.577,1754.171C7988.041,1748.248 7972.745,1738.448 7960.183,1725.017C7853.029,1592.274 7637.975,1658.015 7621.074,1825.46C7612.416,1911.23 7662.625,1989.79 7736.91,2021.192C7819.835,2056.246 7918.403,2027.353 7969.414,1952.556C7969.414,1952.556 7976.919,1941.879 7980.008,1935.087C7982.596,1930.254 7984.983,1925.296 7987.157,1920.227C8068.902,1759.307 8256.272,1674.845 8432.777,1724.18C8446.457,1728.004 8459.851,1732.596 8472.906,1737.907C8499.085,1568.563 8638.901,1414.349 8851.832,1410.033C8997.708,1407.077 9171.16,1509.518 9221.444,1690.98C9221.713,1691.95 9221.978,1692.922 9222.24,1693.896C9223.186,1698.447 9227.869,1702.008 9232.635,1702.233L9244.298,1702.233C9258.747,1702.233 9275.461,1718.947 9275.461,1733.396C9275.461,1747.845 9258.747,1764.559 9244.298,1764.559L9211.084,1765.013L9199.573,1765.013C9185.124,1765.013 9168.41,1781.727 9168.41,1796.176C9168.41,1810.625 9185.124,1827.339 9199.573,1827.339L9242.084,1827.339L9300.787,1827.793C9315.236,1827.793 9331.95,1844.507 9331.95,1858.956C9331.95,1873.405 9315.236,1890.119 9300.787,1890.119L9242.084,1890.573L9228.909,1890.573C9214.46,1890.573 9197.746,1907.286 9197.746,1921.736C9197.746,1936.185 9214.46,1952.899 9228.909,1952.899L9242.084,1952.899L9333.383,1953.352C9347.832,1953.352 9364.546,1970.066 9364.546,1984.515C9364.546,1998.964 9347.832,2015.678 9333.383,2015.678L9242.084,2016.132L9212.611,2016.132C9198.162,2016.132 9181.448,2032.846 9181.448,2047.295C9181.448,2061.744 9198.162,2078.458 9212.611,2078.458L9295.192,2078.912C9309.641,2078.912 9326.355,2095.626 9326.355,2110.075C9326.355,2124.524 9309.641,2141.238 9295.192,2141.238L9253.513,2141.238C9244.364,2141.547 9234.908,2150.133 9234.332,2158.811L9234.332,2159.455C9234.332,2162.786 9234.177,2166.099 9233.874,2169.385C9228.38,2228.978 9174.234,2279.967 9113.821,2279.967C9050.076,2279.967 8993.309,2223.199 8993.309,2159.455L8993.309,1804.238C9000.202,1712.02 8912.094,1634.623 8821.641,1654.973C8753.91,1670.212 8700.778,1738.6 8711.356,1813.513L8711.356,2060.075C8711.517,2061.931 8711.665,2063.79 8711.799,2065.653L8711.799,2159.455C8711.799,2224.573 8656.405,2279.966 8591.287,2279.966L8590.844,2279.966C8586.01,2279.966 8581.217,2279.64 8576.485,2279.009C8533.634,2273.439 8496.835,2244.134 8480.218,2205.222C8473.888,2190.924 8470.332,2175.408 8470.332,2159.455L8470.332,2079.982ZM9327.178,1701.689C9344.512,1701.689 9358.586,1715.762 9358.586,1733.097C9358.586,1750.432 9344.512,1764.505 9327.178,1764.505C9309.843,1764.505 9295.769,1750.432 9295.769,1733.097C9295.769,1715.762 9309.843,1701.689 9327.178,1701.689ZM9468.98,1859.4C9468.98,1876.659 9454.968,1890.67 9437.709,1890.67L9389.857,1890.67C9372.598,1890.67 9358.586,1876.659 9358.586,1859.4C9358.586,1842.141 9372.598,1828.129 9389.857,1828.129L9437.709,1828.129C9454.968,1828.129 9468.98,1842.141 9468.98,1859.4ZM9422.22,2110.863C9422.22,2128.122 9408.208,2142.134 9390.95,2142.134L9375.463,2142.134C9358.204,2142.134 9344.192,2128.122 9344.192,2110.863C9344.192,2093.605 9358.204,2079.593 9375.463,2079.593L9390.95,2079.593C9408.208,2079.593 9422.22,2093.605 9422.22,2110.863Z" style="fill:url(#_Linear1);"/>
            </g>
            <g transform="matrix(12.154004,0,0,12.154004,-74908.987422,-25108.053809)">
                <g transform="matrix(50,0,0,50,7993.785729,2574.799459)">
                </g>
                <text x="7440.686px" y="2574.799px" style="font-family:'Avenir-Book', 'Avenir';font-size:50px;fill:rgb(86,86,86);">c<tspan x="7483.786px 7532.436px 7581.986px 7628.786px 7661.686px 7715.886px 7748.786px 7798.336px 7845.136px 7885.436px 7916.436px 7965.986px " y="2574.799px 2574.799px 2574.799px 2574.799px 2574.799px 2574.799px 2574.799px 2574.799px 2574.799px 2574.799px 2574.799px 2574.799px ">ode &amp; design</tspan></text>
            </g>
            <g transform="matrix(24.615162,0,0,24.615162,-170654.481125,-58107.674905)">
                <g transform="matrix(50,0,0,50,7835.860729,2574.799459)">
                </g>
                <text x="7563.511px" y="2574.799px" style="font-family:'Astra-Regular', 'Astra';font-size:50px;fill:rgb(52,94,185);">Carlos Mor<tspan x="7806.061px " y="2574.799px ">a</tspan></text>
            </g>
            <g transform="matrix(9.703724,0,0,9.703724,16089.720217,1994.51663)">
                <path d="M152.246,54.499C149.866,99.412 85.211,95.132 86.817,52.511C88.148,17.146 139.253,8.794 150.732,44.424C151.655,47.288 151.392,47.265 152.246,54.499Z" style="fill:rgb(52,94,185);"/>
            </g>
            <g transform="matrix(3.571303,0,0,3.571303,-10802.560958,-10573.599181)">
                <path d="M7379.909,4516L9234.332,4516" style="fill:none;stroke:rgb(86,86,86);stroke-width:1.17px;"/>
            </g>
        </g>
    </g>
    <defs>
        <linearGradient id="_Linear1" x1="0" y1="0" x2="1" y2="0" gradientUnits="userSpaceOnUse" gradientTransform="matrix(2090.94836,0,0,1858.116623,7378.031541,1844.968865)"><stop offset="0" style="stop-color:rgb(9,226,246);stop-opacity:1"/><stop offset="1" style="stop-color:rgb(52,94,185);stop-opacity:1"/></linearGradient>
    </defs>
</svg>
