<?xml version="1.0" encoding="UTF-8" standalone="no"?><!DOCTYPE svg PUBLIC "-//W3C//DTD SVG 1.1//EN" "http://www.w3.org/Graphics/SVG/1.1/DTD/svg11.dtd"><svg width="100%" height="100%" viewBox="0 0 6283 4902" version="1.1" xmlns="http://www.w3.org/2000/svg" xmlns:xlink="http://www.w3.org/1999/xlink" xml:space="preserve" xmlns:serif="http://www.serif.com/" style="fill-rule:evenodd;clip-rule:evenodd;stroke-linejoin:round;stroke-miterlimit:2;"><rect id="C" x="0" y="0" width="6282.979" height="4901.264" style="fill:none;"/><path d="M2974.877,2458.23c-31.872,601.352 -897.553,544.048 -876.062,-26.614c17.832,-473.521 702.098,-585.34 855.789,-108.282c12.354,38.348 8.834,38.042 20.273,134.896Z" style="fill:#345eb9;"/><path d="M5250.408,3033.213c-0.464,0.987 -0.746,1.489 -0.838,1.486c-258.903,-8.721 -556.521,211.931 -744.185,555.265c-781.492,1429.752 -2740.522,1656.76 -3831.211,481.806l28.004,0c94.087,0 170.473,-76.386 170.473,-170.473c0,-94.087 -76.386,-170.473 -170.473,-170.473l-290.516,-0l-0,-2.482l-2.993,0c-69.573,-109.374 -129.164,-223.022 -178.884,-339.706c6.769,-0.819 13.66,-1.24 20.649,-1.24l161.229,0l0,-2.482l499.437,0c94.087,0 170.473,-76.386 170.473,-170.473c0,-94.087 -76.386,-170.473 -170.473,-170.473l-499.437,-0l-0,-2.482l-72.074,-0c-94.087,0 -170.473,-76.386 -170.473,-170.473c0,-94.087 76.386,-170.473 170.473,-170.473l72.074,0l0,-2.482l321.126,0c94.087,0 170.473,-76.386 170.473,-170.473c0,-94.087 -76.386,-170.473 -170.473,-170.473l-321.126,-0l-0,-2.482l-232.553,-0c-53.95,0 -102.08,-25.115 -133.326,-64.282c5.528,-80.652 15.106,-161.018 28.704,-240.754c28.89,-22.501 65.202,-35.91 104.622,-35.91l62.972,0l0,-2.482l181.691,0c94.087,0 170.473,-76.386 170.473,-170.473c0,-94.087 -76.386,-170.473 -170.473,-170.473l-252.293,-0c137.766,-399.656 382.994,-767.337 731.357,-1054.813c1013.469,-836.335 2536.156,-684.881 3365.754,343.188c192.867,271.968 127.087,667.538 -143.852,862.406l-73.996,53.22c-173.144,124.531 -388.977,146.904 -575.453,78.885l-2.069,1.23c-90.455,-32.4 -174.131,-86.006 -242.851,-159.482c-586.17,-726.153 -1762.596,-366.526 -1855.053,549.459c-47.359,469.198 227.301,898.948 633.667,1070.729c453.63,191.761 992.834,33.706 1271.881,-375.466c0,0 41.057,-58.406 57.954,-95.56c14.161,-26.44 27.218,-53.558 39.111,-81.291c361.907,-712.44 1110.625,-1178.423 1888.092,-1164.9c141.857,2.467 284.672,20.899 426.269,56.709c1.295,0.421 2.588,0.844 3.879,1.269c318.897,104.993 541.028,338.785 541.028,610.068c0,369.299 -411.643,669.124 -918.672,669.124c-22.91,0 -45.625,-0.612 -68.116,-1.815Z" style="fill:url(#_Linear1);"/><defs><linearGradient id="_Linear1" x1="0" y1="0" x2="1" y2="0" gradientUnits="userSpaceOnUse" gradientTransform="matrix(11438.269865,0,0,10164.593153,45.782587,2451.06869)"><stop offset="0" style="stop-color:#09e2f6;stop-opacity:1"/><stop offset="1" style="stop-color:#345eb9;stop-opacity:1"/></linearGradient></defs></svg>