<?xml version="1.0" encoding="UTF-8" standalone="no"?><!DOCTYPE svg PUBLIC "-//W3C//DTD SVG 1.1//EN" "http://www.w3.org/Graphics/SVG/1.1/DTD/svg11.dtd"><svg width="100%" height="100%" viewBox="0 0 7905 4751" version="1.1" xmlns="http://www.w3.org/2000/svg" xmlns:xlink="http://www.w3.org/1999/xlink" xml:space="preserve" xmlns:serif="http://www.serif.com/" style="fill-rule:evenodd;clip-rule:evenodd;stroke-linejoin:round;stroke-miterlimit:2;"><rect id="logo-blanco" serif:id="logo blanco" x="0" y="0" width="7904.44" height="4750.161" style="fill:none;"/><g><g><path d="M4122.338,2580.861c-24.06,-222.371 -197.608,-455.589 -512.365,-466.192c-171.94,-5.792 -369.591,140.745 -494.22,368.757c-518.996,949.512 -1820.007,1100.27 -2544.343,319.972l18.598,0c62.484,0 113.213,-50.729 113.213,-113.213c0,-62.484 -50.729,-113.213 -113.213,-113.213l-192.934,-0l-0,-1.648l-1.988,0c-46.204,-72.637 -85.779,-148.111 -118.799,-225.602c4.496,-0.544 9.072,-0.824 13.713,-0.824l107.074,0l0,-1.648l331.681,0c62.484,0 113.213,-50.729 113.213,-113.213c0,-62.484 -50.729,-113.213 -113.213,-113.213l-331.681,-0l-0,-1.648l-47.865,-0c-62.484,0 -113.213,-50.729 -113.213,-113.213c0,-62.484 50.729,-113.213 113.213,-113.213l47.865,0l0,-1.648l213.263,0c62.484,0 113.213,-50.729 113.213,-113.213c0,-62.484 -50.729,-113.213 -113.213,-113.213l-213.263,-0l-0,-1.648l-154.441,-0c-35.829,0 -67.792,-16.679 -88.543,-42.69c3.671,-53.562 10.032,-106.933 19.063,-159.887c19.186,-14.943 43.301,-23.848 69.481,-23.848l41.82,0l0,-1.648l120.662,0c62.484,0 113.213,-50.729 113.213,-113.213c0,-62.484 -50.729,-113.213 -113.213,-113.213l-167.55,-0c91.492,-265.416 254.35,-509.596 485.701,-700.511c673.054,-555.418 1684.285,-454.836 2235.229,227.914c128.085,180.617 84.4,443.318 -95.533,572.732l-49.141,35.344c-114.987,82.702 -258.324,97.561 -382.164,52.388l-1.374,0.817c-60.072,-21.517 -115.642,-57.117 -161.279,-105.913c-389.281,-482.245 -1170.557,-243.413 -1231.958,364.901c-31.452,311.599 150.953,597 420.824,711.081c301.26,127.35 659.351,22.384 844.668,-249.351c0,0 27.266,-38.788 38.488,-63.462c9.404,-17.559 18.076,-35.568 25.974,-53.986c296.971,-584.609 977.673,-891.453 1618.903,-712.222c49.701,13.892 98.358,30.574 145.787,49.867c95.106,-615.213 603.047,-1175.462 1376.612,-1191.14c529.957,-10.741 1160.093,361.421 1342.773,1020.66c0.976,3.523 1.94,7.054 2.89,10.593c3.438,16.533 20.45,29.471 37.767,30.289l42.369,0c52.493,0 113.213,60.72 113.213,113.213c-0,52.493 -60.72,113.213 -113.213,113.213l-120.662,1.648l-41.82,-0c-52.493,0 -113.213,60.72 -113.213,113.213c0,52.493 60.72,113.213 113.213,113.213l154.441,0l213.263,1.648c52.493,-0 113.213,60.72 113.213,113.213c0,52.493 -60.72,113.213 -113.213,113.213l-213.263,1.648l-47.865,-0c-52.493,0 -113.213,60.72 -113.213,113.213c0,52.493 60.72,113.213 113.213,113.213l47.865,0l331.681,1.648c52.493,0 113.213,60.72 113.213,113.213c-0,52.493 -60.72,113.213 -113.213,113.213l-331.681,1.648l-107.074,-0c-52.493,0 -113.213,60.72 -113.213,113.213c0,52.493 60.72,113.213 113.213,113.213l300.008,1.648c52.493,-0 113.213,60.72 113.213,113.213c-0,52.493 -60.72,113.213 -113.213,113.213l-151.414,-0c-33.238,1.122 -67.591,32.317 -69.683,63.841l0,2.341c0,12.103 -0.563,24.137 -1.664,36.075c-19.962,216.497 -216.67,401.735 -436.146,401.735c-231.579,0 -437.81,-206.231 -437.81,-437.81l0,-1290.477c25.041,-335.021 -295.047,-616.201 -623.659,-542.267c-246.059,55.36 -439.085,303.809 -400.657,575.964l0,895.741c0.586,6.741 1.122,13.496 1.609,20.263l-0,340.776c0,236.57 -201.24,437.808 -437.81,437.808l-1.609,0c-17.561,0 -34.976,-1.186 -52.167,-3.479c-155.674,-20.234 -289.36,-126.698 -349.729,-268.062c-22.998,-51.945 -35.914,-108.313 -35.914,-166.268l-0,-288.719Zm3112.856,-1374.312c62.976,0 114.104,51.128 114.104,114.104c0,62.976 -51.128,114.104 -114.104,114.104c-62.976,0 -114.104,-51.128 -114.104,-114.104c0,-62.976 51.128,-114.104 114.104,-114.104Zm515.157,572.952c0,62.7 -50.904,113.604 -113.604,113.604l-173.846,0c-62.7,0 -113.604,-50.904 -113.604,-113.604c0,-62.7 50.904,-113.604 113.604,-113.604l173.846,0c62.7,0 113.604,50.904 113.604,113.604Zm-169.874,913.549c0,62.7 -50.904,113.604 -113.604,113.604l-56.263,0c-62.7,0 -113.604,-50.904 -113.604,-113.604c0,-62.7 50.904,-113.604 113.604,-113.604l56.263,0c62.7,0 113.604,50.904 113.604,113.604Z" style="fill:url(#_Linear1);"/><path d="M2146.021,1732.79c-23.497,443.34 -661.711,401.093 -645.867,-19.621c13.147,-349.098 517.613,-431.536 630.921,-79.829c9.108,28.272 6.513,28.046 14.946,99.45Z" style="fill:#345eb9;"/></g><g><path d="M927.463,4374.038c25.365,-1.879 47.207,5.402 65.526,21.842c18.319,16.44 26.539,39.691 24.66,69.753c-0.939,18.789 -10.804,39.456 -29.592,62.003c-18.789,22.547 -44.623,43.684 -77.504,63.412c-32.88,19.728 -71.397,36.403 -115.551,50.025c-44.154,13.622 -92.535,20.433 -145.143,20.433c-70.458,0 -135.749,-13.152 -195.873,-39.456c-60.124,-26.304 -111.793,-62.003 -155.007,-107.096c-43.214,-45.093 -77.034,-98.171 -101.459,-159.235c-24.425,-61.064 -36.638,-125.885 -36.638,-194.464c0,-68.579 12.213,-133.165 36.638,-193.759c24.425,-60.594 58.245,-113.437 101.459,-158.53c43.214,-45.093 94.883,-80.792 155.007,-107.096c60.124,-26.304 125.415,-39.456 195.873,-39.456c52.609,0 100.99,6.811 145.143,20.433c44.154,13.622 82.671,30.297 115.551,50.025c32.88,19.728 58.715,40.866 77.504,63.412c18.789,22.547 28.653,43.214 29.592,62.003c1.879,30.062 -6.341,53.313 -24.66,69.753c-18.319,16.44 -40.161,23.721 -65.526,21.842c-18.789,-0.939 -37.343,-7.75 -55.662,-20.433c-18.319,-12.682 -38.282,-26.304 -59.889,-40.866c-21.607,-14.561 -45.563,-27.713 -71.867,-39.456c-26.304,-11.743 -56.366,-17.614 -90.186,-17.614c-67.64,0 -124.241,16.205 -169.804,48.616c-45.563,32.411 -79.852,73.041 -102.869,121.892c-23.016,48.851 -34.29,101.929 -33.82,159.235c0.47,57.306 11.978,110.384 34.524,159.235c22.547,48.851 56.601,89.482 102.164,121.892c45.563,32.411 102.164,48.616 169.804,48.616c33.82,0 63.882,-5.871 90.186,-17.614c26.304,-11.743 50.26,-24.895 71.867,-39.456c21.607,-14.561 41.57,-27.948 59.889,-40.161c18.319,-12.213 36.873,-18.789 55.662,-19.728Z" style="fill:#345eb9;fill-rule:nonzero;"/><path d="M1474.216,3896.334c51.669,0 99.58,7.985 143.734,23.956c44.154,15.97 82.201,39.456 114.142,70.458c31.941,31.001 56.836,69.284 74.685,114.846c17.849,45.563 26.774,97.936 26.774,157.121l0,311.424c0,29.123 -7.985,50.965 -23.956,65.526c-15.97,14.561 -35.699,21.842 -59.185,21.842c-24.425,0 -44.623,-7.281 -60.594,-21.842c-15.97,-14.561 -23.956,-36.403 -23.956,-65.526l0,-295.923c0,-35.699 -5.637,-67.17 -16.91,-94.414c-11.273,-27.244 -26.069,-50.025 -44.388,-68.344c-18.319,-18.319 -39.691,-31.941 -64.117,-40.866c-24.425,-8.925 -49.321,-13.387 -74.685,-13.387c-26.304,0 -51.669,4.462 -76.095,13.387c-24.425,8.925 -46.032,22.547 -64.821,40.866c-18.789,18.319 -33.82,41.1 -45.093,68.344c-11.273,27.244 -16.91,59.185 -16.91,95.823c0,61.064 17.38,110.384 52.139,147.962c34.759,37.578 84.549,56.366 149.371,56.366l64.821,0c27.244,0 47.442,8.455 60.594,25.365c13.152,16.91 19.728,36.168 19.728,57.775c0,21.607 -6.576,40.631 -19.728,57.071c-13.152,16.44 -33.35,24.66 -60.594,24.66l-64.821,0c-57.306,0 -108.975,-9.394 -155.007,-28.183c-46.032,-18.789 -85.254,-44.623 -117.665,-77.504c-32.411,-32.88 -57.541,-71.867 -75.39,-116.96c-17.849,-45.093 -26.774,-93.944 -26.774,-146.552c0,-64.821 10.569,-121.188 31.706,-169.099c21.137,-47.911 49.555,-87.603 85.254,-119.074c35.699,-31.471 76.799,-55.192 123.301,-71.162c46.502,-15.97 94.648,-23.956 144.439,-23.956Z" style="fill:#345eb9;fill-rule:nonzero;"/><path d="M2329.575,3909.016c26.304,0 46.032,8.22 59.185,24.66c13.152,16.44 19.728,35.464 19.728,57.071c0,21.607 -6.576,40.866 -19.728,57.775c-13.152,16.91 -32.88,25.365 -59.185,25.365l-52.139,0c-21.607,0 -42.275,3.288 -62.003,9.864c-19.728,6.576 -36.873,16.675 -51.434,30.297c-14.561,13.622 -26.069,31.236 -34.524,52.843c-8.455,21.607 -12.682,47.442 -12.682,77.504l0,329.743c0,29.123 -7.985,50.965 -23.956,65.526c-15.97,14.561 -35.699,21.842 -59.185,21.842c-24.425,0 -44.623,-7.281 -60.594,-21.842c-15.97,-14.561 -23.956,-36.403 -23.956,-65.526l0,-345.244c0,-55.427 9.16,-103.338 27.479,-143.734c18.319,-40.396 42.51,-73.511 72.572,-99.346c30.062,-25.835 64.821,-45.093 104.278,-57.775c39.456,-12.682 80.792,-19.024 124.006,-19.024l52.139,0Z" style="fill:#345eb9;fill-rule:nonzero;"/><path d="M2576.178,3568c23.486,0 43.214,7.281 59.185,21.842c15.97,14.561 23.956,36.403 23.956,65.526l0,918.771c0,29.123 -7.985,50.965 -23.956,65.526c-15.97,14.561 -35.699,21.842 -59.185,21.842c-24.425,0 -44.623,-7.281 -60.594,-21.842c-15.97,-14.561 -23.956,-36.403 -23.956,-65.526l0,-918.771c0,-29.123 7.985,-50.965 23.956,-65.526c15.97,-14.561 36.168,-21.842 60.594,-21.842Z" style="fill:#345eb9;fill-rule:nonzero;"/><path d="M3142.659,3896.334c56.366,0 107.801,10.099 154.303,30.297c46.502,20.198 85.959,47.442 118.369,81.731c32.411,34.29 57.541,74.685 75.39,121.188c17.849,46.502 26.774,96.058 26.774,148.666c0,52.609 -8.925,102.164 -26.774,148.666c-17.849,46.502 -42.979,87.133 -75.39,121.892c-32.411,34.759 -71.867,62.238 -118.369,82.436c-46.502,20.198 -97.936,30.297 -154.303,30.297c-57.306,0 -108.975,-10.099 -155.007,-30.297c-46.032,-20.198 -85.254,-47.677 -117.665,-82.436c-32.411,-34.759 -57.541,-75.39 -75.39,-121.892c-17.849,-46.502 -26.774,-96.058 -26.774,-148.666c0,-52.609 8.925,-102.164 26.774,-148.666c17.849,-46.502 42.979,-86.898 75.39,-121.188c32.411,-34.29 71.632,-61.533 117.665,-81.731c46.032,-20.198 97.702,-30.297 155.007,-30.297Zm0,600.301c31.941,0 60.359,-5.637 85.254,-16.91c24.895,-11.273 46.032,-26.774 63.412,-46.502c17.38,-19.728 30.532,-42.744 39.456,-69.049c8.925,-26.304 13.387,-54.957 13.387,-85.959c0,-30.062 -4.462,-58.245 -13.387,-84.549c-8.925,-26.304 -22.077,-49.321 -39.456,-69.049c-17.38,-19.728 -38.517,-35.229 -63.412,-46.502c-24.895,-11.273 -53.313,-16.91 -85.254,-16.91c-31.941,0 -60.359,5.637 -85.254,16.91c-24.895,11.273 -46.032,26.774 -63.412,46.502c-17.38,19.728 -30.532,42.744 -39.456,69.049c-8.925,26.304 -13.387,54.487 -13.387,84.549c0,31.001 4.462,59.654 13.387,85.959c8.925,26.304 22.077,49.321 39.456,69.049c17.38,19.728 38.517,35.229 63.412,46.502c24.895,11.273 53.313,16.91 85.254,16.91Z" style="fill:#345eb9;fill-rule:nonzero;"/><path d="M3785.235,4103.48c0,22.547 8.925,40.396 26.774,53.548c17.849,13.152 39.926,24.66 66.23,34.524c26.304,9.864 55.192,19.963 86.663,30.297c31.471,10.334 60.359,24.191 86.663,41.57c26.304,17.38 48.381,39.691 66.23,66.935c17.849,27.244 26.774,62.942 26.774,107.096c0,38.517 -7.281,71.867 -21.842,100.05c-14.561,28.183 -34.055,51.434 -58.48,69.753c-24.425,18.319 -52.374,31.941 -83.845,40.866c-31.471,8.925 -64.117,13.387 -97.936,13.387c-28.183,0 -56.601,-3.288 -85.254,-9.864c-28.653,-6.576 -55.427,-15.736 -80.322,-27.479c-24.895,-11.743 -46.972,-26.539 -66.23,-44.388c-19.258,-17.849 -34.524,-38.047 -45.798,-60.594c-7.516,-15.97 -10.804,-31.001 -9.864,-45.093c0.939,-14.092 4.697,-26.774 11.273,-38.047c6.576,-11.273 15.736,-20.198 27.479,-26.774c11.743,-6.576 24.66,-9.864 38.752,-9.864c27.244,0 50.26,14.561 69.049,43.684c13.152,21.607 33.115,38.282 59.889,50.025c26.774,11.743 53.783,17.614 81.027,17.614c25.365,0 47.442,-5.402 66.23,-16.205c18.789,-10.804 28.183,-27.009 28.183,-48.616c0,-21.607 -8.925,-38.752 -26.774,-51.434c-17.849,-12.682 -39.926,-24.425 -66.23,-35.229c-26.304,-10.804 -55.192,-21.607 -86.663,-32.411c-31.471,-10.804 -60.359,-24.895 -86.663,-42.275c-26.304,-17.38 -48.381,-39.926 -66.23,-67.64c-17.849,-27.713 -26.774,-63.177 -26.774,-106.391c0,-36.638 7.516,-68.344 22.547,-95.118c15.031,-26.774 34.759,-49.086 59.185,-66.935c24.425,-17.849 52.374,-31.001 83.845,-39.456c31.471,-8.455 63.647,-12.682 96.527,-12.682c48.851,0 95.118,9.16 138.802,27.479c43.684,18.319 75.86,45.328 96.527,81.027c10.334,16.91 15.266,32.645 14.796,47.207c-0.47,14.561 -4.462,27.479 -11.978,38.752c-7.516,11.273 -17.614,20.198 -30.297,26.774c-12.682,6.576 -27.009,9.864 -42.979,9.864c-22.547,0 -45.093,-9.394 -67.64,-28.183c-17.849,-14.092 -38.047,-25.365 -60.594,-33.82c-22.547,-8.455 -44.154,-12.682 -64.821,-12.682c-18.789,0 -34.524,3.993 -47.207,11.978c-12.682,7.985 -19.024,20.903 -19.024,38.752Z" style="fill:#345eb9;fill-rule:nonzero;"/><path d="M5584.729,4564.275c2.818,31.941 -5.402,56.131 -24.66,72.572c-19.258,16.44 -40.631,24.66 -64.117,24.66c-20.668,0 -39.456,-6.341 -56.366,-19.024c-16.91,-12.682 -26.774,-32.645 -29.592,-59.889l-52.139,-538.298c-0.939,-3.758 -3.288,-5.871 -7.046,-6.341c-3.758,-0.47 -6.576,1.644 -8.455,6.341l-149.371,341.016c-11.273,24.425 -27.009,42.744 -47.207,54.957c-20.198,12.213 -41.57,18.319 -64.117,18.319c-21.607,0 -42.744,-6.106 -63.412,-18.319c-20.668,-12.213 -36.638,-30.532 -47.911,-54.957l-149.371,-341.016c-1.879,-4.697 -4.697,-6.811 -8.455,-6.341c-3.758,0.47 -6.106,2.583 -7.046,6.341l-52.139,538.298c-2.818,27.244 -12.682,47.207 -29.592,59.889c-16.91,12.682 -35.699,19.024 -56.366,19.024c-24.425,0 -46.032,-8.22 -64.821,-24.66c-18.789,-16.44 -26.774,-40.631 -23.956,-72.572l85.959,-814.493c2.818,-29.123 14.092,-50.965 33.82,-65.526c19.728,-14.561 41.805,-21.842 66.23,-21.842c22.547,0 42.275,4.697 59.185,14.092c16.91,9.394 30.532,25.835 40.866,49.321l202.919,469.25c3.758,7.516 8.69,11.273 14.796,11.273c6.106,0 10.569,-3.758 13.387,-11.273l202.919,-469.25c10.334,-23.486 24.191,-39.926 41.57,-49.321c17.38,-9.394 36.873,-14.092 58.48,-14.092c24.425,0 46.502,7.281 66.23,21.842c19.728,14.561 31.001,36.403 33.82,65.526l85.959,814.493Z" style="fill:#345eb9;fill-rule:nonzero;"/><path d="M6044.115,3896.334c56.366,0 107.801,10.099 154.303,30.297c46.502,20.198 85.959,47.442 118.369,81.731c32.411,34.29 57.541,74.685 75.39,121.188c17.849,46.502 26.774,96.058 26.774,148.666c0,52.609 -8.925,102.164 -26.774,148.666c-17.849,46.502 -42.979,87.133 -75.39,121.892c-32.411,34.759 -71.867,62.238 -118.369,82.436c-46.502,20.198 -97.936,30.297 -154.303,30.297c-57.306,0 -108.975,-10.099 -155.007,-30.297c-46.032,-20.198 -85.254,-47.677 -117.665,-82.436c-32.411,-34.759 -57.541,-75.39 -75.39,-121.892c-17.849,-46.502 -26.774,-96.058 -26.774,-148.666c0,-52.609 8.925,-102.164 26.774,-148.666c17.849,-46.502 42.979,-86.898 75.39,-121.188c32.411,-34.29 71.632,-61.533 117.665,-81.731c46.032,-20.198 97.702,-30.297 155.007,-30.297Zm0,600.301c31.941,0 60.359,-5.637 85.254,-16.91c24.895,-11.273 46.032,-26.774 63.412,-46.502c17.38,-19.728 30.532,-42.744 39.456,-69.049c8.925,-26.304 13.387,-54.957 13.387,-85.959c0,-30.062 -4.462,-58.245 -13.387,-84.549c-8.925,-26.304 -22.077,-49.321 -39.456,-69.049c-17.38,-19.728 -38.517,-35.229 -63.412,-46.502c-24.895,-11.273 -53.313,-16.91 -85.254,-16.91c-31.941,0 -60.359,5.637 -85.254,16.91c-24.895,11.273 -46.032,26.774 -63.412,46.502c-17.38,19.728 -30.532,42.744 -39.456,69.049c-8.925,26.304 -13.387,54.487 -13.387,84.549c0,31.001 4.462,59.654 13.387,85.959c8.925,26.304 22.077,49.321 39.456,69.049c17.38,19.728 38.517,35.229 63.412,46.502c24.895,11.273 53.313,16.91 85.254,16.91Z" style="fill:#345eb9;fill-rule:nonzero;"/><path d="M6895.246,3909.016c26.304,0 46.032,8.22 59.185,24.66c13.152,16.44 19.728,35.464 19.728,57.071c0,21.607 -6.576,40.866 -19.728,57.775c-13.152,16.91 -32.88,25.365 -59.185,25.365l-52.139,0c-21.607,0 -42.275,3.288 -62.003,9.864c-19.728,6.576 -36.873,16.675 -51.434,30.297c-14.561,13.622 -26.069,31.236 -34.524,52.843c-8.455,21.607 -12.682,47.442 -12.682,77.504l0,329.743c0,29.123 -7.985,50.965 -23.956,65.526c-15.97,14.561 -35.699,21.842 -59.185,21.842c-24.425,0 -44.623,-7.281 -60.594,-21.842c-15.97,-14.561 -23.956,-36.403 -23.956,-65.526l0,-345.244c0,-55.427 9.16,-103.338 27.479,-143.734c18.319,-40.396 42.51,-73.511 72.572,-99.346c30.062,-25.835 64.821,-45.093 104.278,-57.775c39.456,-12.682 80.792,-19.024 124.006,-19.024l52.139,0Z" style="fill:#345eb9;fill-rule:nonzero;"/><path d="M7384.224,3896.334c51.669,0 99.58,7.985 143.734,23.956c44.154,15.97 82.201,39.456 114.142,70.458c31.941,31.001 56.836,69.284 74.685,114.846c17.849,45.563 26.774,97.936 26.774,157.121l0,311.424c0,29.123 -7.985,50.965 -23.956,65.526c-15.97,14.561 -35.699,21.842 -59.185,21.842c-24.425,0 -44.623,-7.281 -60.594,-21.842c-15.97,-14.561 -23.956,-36.403 -23.956,-65.526l0,-295.923c0,-35.699 -5.637,-67.17 -16.91,-94.414c-11.273,-27.244 -26.069,-50.025 -44.388,-68.344c-18.319,-18.319 -39.691,-31.941 -64.117,-40.866c-24.425,-8.925 -49.321,-13.387 -74.685,-13.387c-26.304,0 -51.669,4.462 -76.095,13.387c-24.425,8.925 -46.032,22.547 -64.821,40.866c-18.789,18.319 -33.82,41.1 -45.093,68.344c-11.273,27.244 -16.91,59.185 -16.91,95.823c0,61.064 17.38,110.384 52.139,147.962c34.759,37.578 84.549,56.366 149.371,56.366l64.821,0c27.244,0 47.442,8.455 60.594,25.365c13.152,16.91 19.728,36.168 19.728,57.775c0,21.607 -6.576,40.631 -19.728,57.071c-13.152,16.44 -33.35,24.66 -60.594,24.66l-64.821,0c-57.306,0 -108.975,-9.394 -155.007,-28.183c-46.032,-18.789 -85.254,-44.623 -117.665,-77.504c-32.411,-32.88 -57.541,-71.867 -75.39,-116.96c-17.849,-45.093 -26.774,-93.944 -26.774,-146.552c0,-64.821 10.569,-121.188 31.706,-169.099c21.137,-47.911 49.555,-87.603 85.254,-119.074c35.699,-31.471 76.799,-55.192 123.301,-71.162c46.502,-15.97 94.648,-23.956 144.439,-23.956Z" style="fill:#345eb9;fill-rule:nonzero;"/></g></g><defs><linearGradient id="_Linear1" x1="0" y1="0" x2="1" y2="0" gradientUnits="userSpaceOnUse" gradientTransform="matrix(7596.262864,0,0,6750.402151,154.088771,1727.075011)"><stop offset="0" style="stop-color:#09e2f6;stop-opacity:1"/><stop offset="1" style="stop-color:#345eb9;stop-opacity:1"/></linearGradient></defs></svg>