<svg xmlns="http://www.w3.org/2000/svg" xml:space="preserve" style="fill-rule:evenodd;clip-rule:evenodd;stroke-linejoin:round;stroke-miterlimit:2" viewBox="0 0 7905 4751"><path id="logo-blanco" d="M0 0h7904.44v4750.161H0z" style="fill:none"/><path d="M4122.338 2580.861c-24.06-222.371-197.608-455.589-512.365-466.192-171.94-5.792-369.591 140.745-494.22 368.757-518.996 949.512-1820.007 1100.27-2544.343 319.972h18.598c62.484 0 113.213-50.729 113.213-113.213s-50.729-113.213-113.213-113.213H397.074v-1.648h-1.988a1558.5 1558.5 0 0 1-118.799-225.602c4.496-.544 9.072-.824 13.713-.824h107.074v-1.648h331.681c62.484 0 113.213-50.729 113.213-113.213s-50.729-113.213-113.213-113.213H397.074v-1.648h-47.865c-62.484 0-113.213-50.729-113.213-113.213s50.729-113.213 113.213-113.213h47.865v-1.648h213.263c62.484 0 113.213-50.729 113.213-113.213s-50.729-113.213-113.213-113.213H397.074v-1.648H242.633c-35.829 0-67.792-16.679-88.543-42.69a1603 1603 0 0 1 19.063-159.887c19.186-14.943 43.301-23.848 69.481-23.848h41.82v-1.648h120.662c62.484 0 113.213-50.729 113.213-113.213s-50.729-113.213-113.213-113.213h-167.55c91.492-265.416 254.35-509.596 485.701-700.511C1396.321-47.4 2407.552 53.182 2958.496 735.932c128.085 180.617 84.4 443.318-95.533 572.732l-49.141 35.344c-114.987 82.702-258.324 97.561-382.164 52.388l-1.374.817c-60.072-21.517-115.642-57.117-161.279-105.913-389.281-482.245-1170.557-243.413-1231.958 364.901-31.452 311.599 150.953 597 420.824 711.081 301.26 127.35 659.351 22.384 844.668-249.351 0 0 27.266-38.788 38.488-63.462a692 692 0 0 0 25.974-53.986c296.971-584.609 977.673-891.453 1618.903-712.222a1355 1355 0 0 1 145.787 49.867c95.106-615.213 603.047-1175.462 1376.612-1191.14 529.957-10.741 1160.093 361.421 1342.773 1020.66q1.464 5.284 2.89 10.593c3.438 16.533 20.45 29.471 37.767 30.289h42.369c52.493 0 113.213 60.72 113.213 113.213s-60.72 113.213-113.213 113.213l-120.662 1.648h-41.82c-52.493 0-113.213 60.72-113.213 113.213s60.72 113.213 113.213 113.213h154.441l213.263 1.648c52.493 0 113.213 60.72 113.213 113.213s-60.72 113.213-113.213 113.213l-213.263 1.648h-47.865c-52.493 0-113.213 60.72-113.213 113.213s60.72 113.213 113.213 113.213h47.865l331.681 1.648c52.493 0 113.213 60.72 113.213 113.213s-60.72 113.213-113.213 113.213l-331.681 1.648h-107.074c-52.493 0-113.213 60.72-113.213 113.213s60.72 113.213 113.213 113.213l300.008 1.648c52.493 0 113.213 60.72 113.213 113.213s-60.72 113.213-113.213 113.213h-151.414c-33.238 1.122-67.591 32.317-69.683 63.841v2.341c0 12.103-.563 24.137-1.664 36.075-19.962 216.497-216.67 401.735-436.146 401.735-231.579 0-437.81-206.231-437.81-437.81V1579.105c25.041-335.021-295.047-616.201-623.659-542.267-246.059 55.36-439.085 303.809-400.657 575.964v895.741a1367 1367 0 0 1 1.609 20.263v340.776c0 236.57-201.24 437.808-437.81 437.808h-1.609a394 394 0 0 1-52.167-3.479c-155.674-20.234-289.36-126.698-349.729-268.062-22.998-51.945-35.914-108.313-35.914-166.268v-288.719Zm3112.856-1374.312c62.976 0 114.104 51.128 114.104 114.104s-51.128 114.104-114.104 114.104-114.104-51.128-114.104-114.104 51.128-114.104 114.104-114.104m515.157 572.952c0 62.7-50.904 113.604-113.604 113.604h-173.846c-62.7 0-113.604-50.904-113.604-113.604s50.904-113.604 113.604-113.604h173.846c62.7 0 113.604 50.904 113.604 113.604m-169.874 913.549c0 62.7-50.904 113.604-113.604 113.604h-56.263c-62.7 0-113.604-50.904-113.604-113.604s50.904-113.604 113.604-113.604h56.263c62.7 0 113.604 50.904 113.604 113.604" style="fill:url(#_Linear1)"/><path d="M2146.021 1732.79c-23.497 443.34-661.711 401.093-645.867-19.621 13.147-349.098 517.613-431.536 630.921-79.829 9.108 28.272 6.513 28.046 14.946 99.45" style="fill:#345eb9"/><path d="M927.463 4374.038q38.047-2.818 65.526 21.842t24.66 69.753q-1.41 28.183-29.592 62.003-28.183 33.82-77.504 63.412-49.32 29.592-115.551 50.025t-145.143 20.433q-105.687 0-195.873-39.456t-155.007-107.096-101.459-159.235q-36.638-91.596-36.638-194.464t36.638-193.759q36.638-90.89 101.459-158.53t155.007-107.096 195.873-39.456q78.914 0 145.143 20.433 66.231 20.433 115.551 50.025 49.32 29.593 77.504 63.412 28.183 33.82 29.592 62.003 2.818 45.093-24.66 69.753t-65.526 21.842q-28.183-1.409-55.662-20.433-27.478-19.023-59.889-40.866-32.41-21.842-71.867-39.456-39.456-17.614-90.186-17.614-101.46 0-169.804 48.616t-102.869 121.892-33.82 159.235 34.524 159.235q33.82 73.277 102.164 121.892 68.344 48.616 169.804 48.616 50.73 0 90.186-17.614t71.867-39.456a14558 14558 0 0 1 59.889-40.161q27.479-18.32 55.662-19.728Zm546.753-477.704q77.503 0 143.734 23.956 66.23 23.955 114.142 70.458t74.685 114.846q26.774 68.344 26.774 157.121v311.424q0 43.685-23.956 65.526-23.956 21.842-59.185 21.842-36.638 0-60.594-21.842-23.955-21.841-23.956-65.526v-295.923q0-53.548-16.91-94.414t-44.388-68.344-64.117-40.866q-36.638-13.387-74.685-13.387-39.456 0-76.095 13.387t-64.821 40.866q-28.183 27.478-45.093 68.344t-16.91 95.823q0 91.596 52.139 147.962 52.138 56.367 149.371 56.366h64.821q40.866 0 60.594 25.365t19.728 57.775-19.728 57.071q-19.728 24.66-60.594 24.66h-64.821q-85.959 0-155.007-28.183t-117.665-77.504q-48.616-49.32-75.39-116.96t-26.774-146.552q0-97.232 31.706-169.099t85.254-119.074 123.301-71.162q69.753-23.956 144.439-23.956Zm855.359 12.682q39.456 0 59.185 24.66t19.728 57.071-19.728 57.775-59.185 25.365h-52.139q-32.41 0-62.003 9.864-29.592 9.864-51.434 30.297t-34.524 52.843-12.682 77.504v329.743q0 43.685-23.956 65.526-23.956 21.842-59.185 21.842-36.638 0-60.594-21.842t-23.956-65.526v-345.244q0-83.14 27.479-143.734t72.572-99.346 104.278-57.775 124.006-19.024zM2576.178 3568q35.229 0 59.185 21.842t23.956 65.526v918.771q0 43.685-23.956 65.526-23.955 21.842-59.185 21.842-36.638 0-60.594-21.842t-23.956-65.526v-918.771q0-43.685 23.956-65.526 23.955-21.842 60.594-21.842m566.481 328.334q84.55 0 154.303 30.297t118.369 81.731 75.39 121.188 26.774 148.666-26.774 148.666q-26.773 69.753-75.39 121.892-48.616 52.139-118.369 82.436t-154.303 30.297q-85.959 0-155.007-30.297t-117.665-82.436-75.39-121.892q-26.774-69.754-26.774-148.666 0-78.913 26.774-148.666 26.773-69.753 75.39-121.188 48.616-51.434 117.665-81.731t155.007-30.297m0 600.301q47.911 0 85.254-16.91 37.342-16.91 63.412-46.502t39.456-69.049 13.387-85.959q0-45.093-13.387-84.549t-39.456-69.049q-26.07-29.592-63.412-46.502-37.343-16.91-85.254-16.91t-85.254 16.91-63.412 46.502q-26.07 29.592-39.456 69.049-13.387 39.456-13.387 84.549 0 46.502 13.387 85.959t39.456 69.049q26.07 29.592 63.412 46.502 37.343 16.91 85.254 16.91m642.576-393.155q0 33.82 26.774 53.548t66.23 34.524 86.663 30.297 86.663 41.57 66.23 66.935q26.774 40.865 26.774 107.096 0 57.775-21.842 100.05t-58.48 69.753-83.845 40.866q-47.207 13.387-97.936 13.387-42.275 0-85.254-9.864t-80.322-27.479q-37.343-17.614-66.23-44.388t-45.798-60.594q-11.274-23.955-9.864-45.093t11.273-38.047q9.864-16.91 27.479-26.774t38.752-9.864q40.866 0 69.049 43.684 19.728 32.41 59.889 50.025 40.161 17.614 81.027 17.614 38.048 0 66.23-16.205 28.183-16.206 28.183-48.616t-26.774-51.434q-26.774-19.023-66.23-35.229t-86.663-32.411q-47.207-16.206-86.663-42.275-39.456-26.07-66.23-67.64t-26.774-106.391q0-54.957 22.547-95.118 22.546-40.161 59.185-66.935 36.638-26.774 83.845-39.456t96.527-12.682q73.276 0 138.802 27.479t96.527 81.027q15.501 25.365 14.796 47.207t-11.978 38.752-30.297 26.774-42.979 9.864q-33.82 0-67.64-28.183-26.774-21.138-60.594-33.82t-64.821-12.682q-28.183 0-47.207 11.978-19.023 11.978-19.024 38.752Zm1799.494 460.795q4.227 47.911-24.66 72.572-28.888 24.66-64.117 24.66-31.001 0-56.366-19.024-25.365-19.023-29.592-59.889l-52.139-538.298q-1.409-5.637-7.046-6.341t-8.455 6.341l-149.371 341.016q-16.91 36.637-47.207 54.957t-64.117 18.319q-32.41 0-63.412-18.319-31.002-18.32-47.911-54.957l-149.371-341.016q-2.818-7.046-8.455-6.341-5.636.704-7.046 6.341l-52.139 538.298q-4.227 40.866-29.592 59.889t-56.366 19.024q-36.637 0-64.821-24.66t-23.956-72.572l85.959-814.493q4.227-43.684 33.82-65.526 29.592-21.842 66.23-21.842 33.82 0 59.185 14.092 25.365 14.091 40.866 49.321l202.919 469.25q5.637 11.274 14.796 11.273 9.16 0 13.387-11.273l202.919-469.25q15.501-35.229 41.57-49.321t58.48-14.092q36.638 0 66.23 21.842t33.82 65.526zm459.386-667.941q84.55 0 154.303 30.297 69.754 30.297 118.369 81.731 48.616 51.434 75.39 121.188t26.774 148.666-26.774 148.666q-26.774 69.753-75.39 121.892t-118.369 82.436-154.303 30.297q-85.959 0-155.007-30.297t-117.665-82.436-75.39-121.892q-26.774-69.754-26.774-148.666 0-78.913 26.774-148.666t75.39-121.188 117.665-81.731 155.007-30.297m0 600.301q47.912 0 85.254-16.91t63.412-46.502 39.456-69.049q13.387-39.456 13.387-85.959 0-45.093-13.387-84.549t-39.456-69.049-63.412-46.502q-37.342-16.91-85.254-16.91t-85.254 16.91-63.412 46.502-39.456 69.049q-13.387 39.456-13.387 84.549 0 46.502 13.387 85.959t39.456 69.049 63.412 46.502q37.342 16.91 85.254 16.91m851.131-587.619q39.456 0 59.185 24.66t19.728 57.071q0 32.411-19.728 57.775-19.728 25.365-59.185 25.365h-52.139q-32.41 0-62.003 9.864-29.592 9.864-51.434 30.297t-34.524 52.843-12.682 77.504v329.743q0 43.685-23.956 65.526-23.956 21.842-59.185 21.842-36.638 0-60.594-21.842t-23.956-65.526v-345.244q0-83.14 27.479-143.734t72.572-99.346 104.278-57.775 124.006-19.024h52.139Zm488.978-12.682q77.503 0 143.734 23.956 66.23 23.955 114.142 70.458t74.685 114.846q26.774 68.344 26.774 157.121v311.424q0 43.685-23.956 65.526-23.956 21.842-59.185 21.842-36.638 0-60.594-21.842t-23.956-65.526v-295.923q0-53.548-16.91-94.414t-44.388-68.344-64.117-40.866q-36.638-13.387-74.685-13.387-39.456 0-76.095 13.387-36.637 13.388-64.821 40.866t-45.093 68.344q-16.91 40.866-16.91 95.823 0 91.596 52.139 147.962 52.138 56.367 149.371 56.366h64.821q40.866 0 60.594 25.365t19.728 57.775-19.728 57.071q-19.728 24.66-60.594 24.66h-64.821q-85.959 0-155.007-28.183t-117.665-77.504q-48.617-49.32-75.39-116.96t-26.774-146.552q0-97.232 31.706-169.099t85.254-119.074 123.301-71.162q69.753-23.956 144.439-23.956Z" style="fill:#345eb9;fill-rule:nonzero"/><defs><linearGradient id="_Linear1" x1="0" x2="1" y1="0" y2="0" gradientTransform="matrix(7596.26286 0 0 6750.40215 154.089 1727.075)" gradientUnits="userSpaceOnUse"><stop offset="0" style="stop-color:#09e2f6;stop-opacity:1"/><stop offset="1" style="stop-color:#345eb9;stop-opacity:1"/></linearGradient></defs></svg>