<?xml version="1.0" encoding="UTF-8" standalone="no"?><!DOCTYPE svg PUBLIC "-//W3C//DTD SVG 1.1//EN" "http://www.w3.org/Graphics/SVG/1.1/DTD/svg11.dtd"><svg width="100%" height="100%" viewBox="0 0 7584 3826" version="1.1" xmlns="http://www.w3.org/2000/svg" xmlns:xlink="http://www.w3.org/1999/xlink" xml:space="preserve" xmlns:serif="http://www.serif.com/" style="fill-rule:evenodd;clip-rule:evenodd;stroke-linejoin:round;stroke-miterlimit:2;"><rect id="M" x="0" y="0" width="7583.76" height="3825.482" style="fill:none;"/><path d="M3249.381,2920.017c-28.386,-262.348 -233.134,-537.493 -604.476,-550.002c-202.85,-6.833 -436.034,166.048 -583.069,435.05c-338.738,619.727 -959.845,951.042 -1591.913,967.516c-510.449,13.304 -582.924,-1033.331 -37.589,-1041.164c261.373,-3.755 516.215,-131.926 670.089,-357.556c0,0 32.168,-45.761 45.407,-74.871c11.095,-20.716 21.326,-41.962 30.644,-63.692c350.359,-689.707 1153.434,-1051.714 1909.942,-840.262c58.636,16.389 116.041,36.07 171.996,58.832c112.204,-725.813 711.461,-1386.781 1624.094,-1405.277c625.23,-12.672 1368.65,426.396 1584.171,1204.149c1.152,4.156 2.288,8.322 3.41,12.497c4.056,19.505 24.127,34.769 44.556,35.734l49.986,0c61.929,0 133.566,71.636 133.566,133.566c-0,61.929 -71.636,133.566 -133.566,133.566l-142.355,1.945l-49.338,-0c-61.929,0 -133.566,71.636 -133.566,133.566c0,61.929 71.636,133.566 133.566,133.566l182.206,0l251.603,1.945c61.929,-0 133.566,71.636 133.566,133.566c0,61.929 -71.636,133.566 -133.566,133.566l-251.603,1.945l-56.47,-0c-61.929,0 -133.566,71.636 -133.566,133.566c0,61.929 71.636,133.566 133.566,133.566l56.47,0l391.309,1.945c61.929,0 133.566,71.636 133.566,133.566c-0,61.929 -71.636,133.566 -133.566,133.566l-391.309,1.945l-126.323,-0c-61.929,0 -133.566,71.636 -133.566,133.566c0,61.929 71.636,133.566 133.566,133.566l353.942,1.945c61.929,-0 133.566,71.636 133.566,133.566c-0,61.929 -71.636,133.566 -133.566,133.566l-178.634,-0c-39.213,1.324 -79.742,38.127 -82.21,75.318l0,2.762c0,14.279 -0.665,28.476 -1.963,42.561c-23.55,255.418 -255.622,473.957 -514.554,473.957c-273.212,0 -516.518,-243.306 -516.518,-516.518l0,-1522.473c29.543,-395.249 -348.089,-726.979 -735.778,-639.754c-290.295,65.313 -518.022,358.426 -472.685,679.509l0,1056.774c0.691,7.953 1.324,15.922 1.899,23.906l-0,402.039c0,279.1 -237.418,516.516 -516.518,516.516l-1.899,0c-20.718,0 -41.264,-1.399 -61.545,-4.104c-183.66,-23.871 -341.38,-149.475 -412.602,-316.253c-27.132,-61.283 -42.371,-127.785 -42.371,-196.159l-0,-340.624Zm3672.472,-1621.379c74.297,0 134.617,60.32 134.617,134.617c0,74.297 -60.32,134.617 -134.617,134.617c-74.297,0 -134.617,-60.32 -134.617,-134.617c0,-74.297 60.32,-134.617 134.617,-134.617Zm607.77,675.955c0,73.972 -60.055,134.027 -134.027,134.027l-205.099,0c-73.972,0 -134.027,-60.055 -134.027,-134.027c0,-73.972 60.055,-134.027 134.027,-134.027l205.099,0c73.972,0 134.027,60.055 134.027,134.027Zm-200.414,1077.783c0,73.972 -60.055,134.027 -134.027,134.027l-66.378,0c-73.972,0 -134.027,-60.055 -134.027,-134.027c0,-73.972 60.055,-134.027 134.027,-134.027l66.378,0c73.972,0 134.027,60.055 134.027,134.027Z" style="fill:url(#_Linear1);"/><defs><linearGradient id="_Linear1" x1="0" y1="0" x2="1" y2="0" gradientUnits="userSpaceOnUse" gradientTransform="matrix(8961.885678,0,0,7963.959836,-1432.262839,1912.741198)"><stop offset="0" style="stop-color:#09e2f6;stop-opacity:1"/><stop offset="1" style="stop-color:#345eb9;stop-opacity:1"/></linearGradient></defs></svg>