<?xml version="1.0" encoding="UTF-8" standalone="no"?><!DOCTYPE svg PUBLIC "-//W3C//DTD SVG 1.1//EN" "http://www.w3.org/Graphics/SVG/1.1/DTD/svg11.dtd">
<svg xmlns="http://www.w3.org/2000/svg" xml:space="preserve" width="100%" height="100%" style="fill-rule:evenodd;clip-rule:evenodd;stroke-linejoin:round;stroke-miterlimit:2" viewBox="0 0 7905 3875">
<path id="Nube" d="M0 0h7904.44v3874.977H0z" style="fill:none"/>
<clipPath id="_clip1">
<path d="M0 0h7904.44v3874.977H0z"/>
</clipPath>
<g clip-path="url(#_clip1)">
<path d="M899.063 3017.062q.057-.264.153-.29.636-.132 1.27-.273l-1.423.562Zm93.3-1254.598c0-207.199 168.22-375.419 375.419-375.419s375.419 168.22 375.419 375.419-168.22 375.419-375.419 375.419-375.419-168.22-375.419-375.419M2877.462 67.521c206.291 0 373.773 167.482 373.773 373.773v571.978c0 206.291-167.482 373.773-373.773 373.773s-373.773-167.482-373.773-373.773V441.294c0-206.291 167.482-373.773 373.773-373.773m3005.711 558.912c206.291 0 373.773 167.482 373.773 373.773v185.115c0 206.291-167.482 373.773-373.773 373.773S5509.4 1391.612 5509.4 1185.321v-185.115c0-206.291 167.482-373.773 373.773-373.773" style="fill:url(#_Linear2)"/>
<path d="M7904.44 3874.977H0s372.7-629.866 899.063-838.215l1.423-.562c10.064-2.229 19.714-5.985 28.768-10.99 39.335-21.742 67.447-67.044 69.616-112.995v-139.4c0-172.708 199.779-372.487 372.487-372.487s372.487 199.779 372.487 372.487l5.423 396.997v137.594c0 172.708 199.779 372.487 372.487 372.487 140.565 0 299.063-132.336 353.19-274.708 12.377-32.556 19.297-65.637 19.297-97.779v-508.133l5.423-701.667c0-172.708 199.779-372.487 372.487-372.487s372.487 199.779 372.487 372.487l5.423 701.667v157.482c0 172.708 199.779 372.487 372.487 372.487s372.487-199.779 372.487-372.487v-157.482l5.423-1091.28c0-172.708 199.779-372.487 372.487-372.487s372.487 199.779 372.487 372.487l5.423 1091.28v352.288c0 172.708 199.779 372.487 372.487 372.487s372.487-199.779 372.487-372.487l5.423-987.071c0-172.708 199.779-372.487 372.487-372.487s372.487 199.779 372.487 372.487v498.174c3.691 109.357 106.329 222.385 210.046 229.266h7.703c39.821 0 79.414 1.853 118.694 5.475 712.307 65.677 1321.766 977.571 1321.766 977.571Z" style="fill:url(#_Linear3)"/>
</g>
<defs>
<linearGradient id="_Linear2" x1="0" x2="1" y1="0" y2="0" gradientTransform="matrix(0 -24992.83381 22209.82635 0 2704.969 25060.354)" gradientUnits="userSpaceOnUse"><stop offset="0" style="stop-color:#09e2f6;stop-opacity:1"/><stop offset="1" style="stop-color:#345eb9;stop-opacity:1"/></linearGradient><linearGradient id="_Linear3" x1="0" x2="1" y1="0" y2="0" gradientTransform="matrix(0 -24992.83381 22209.82635 0 2704.969 25080.054)" gradientUnits="userSpaceOnUse"><stop offset="0" style="stop-color:#09e2f6;stop-opacity:1"/><stop offset="1" style="stop-color:#345eb9;stop-opacity:1"/></linearGradient></defs></svg>