<svg width="333" height="124" viewBox="0 0 333 124" fill="none" xmlns="http://www.w3.org/2000/svg">
<path fill-rule="evenodd" clip-rule="evenodd" d="M286.57 99.1804L286.57 81.2852C286.57 76.0662 290.809 71.8291 296.03 71.8291C301.251 71.8291 305.49 76.0662 305.49 81.2852L305.49 99.1804C305.49 104.399 301.251 108.636 296.03 108.636C290.809 108.636 286.57 104.399 286.57 99.1804Z" fill="#2D73C3"/>
<path fill-rule="evenodd" clip-rule="evenodd" d="M250.444 77.3555L250.444 70.3307C250.444 65.1118 254.682 60.8747 259.904 60.8747C265.125 60.8747 269.363 65.1118 269.363 70.3307L269.363 77.3555C269.363 82.5744 265.125 86.8115 259.904 86.8115C254.682 86.8115 250.444 82.5744 250.444 77.3555Z" fill="#2D73C3"/>
<path fill-rule="evenodd" clip-rule="evenodd" d="M174.436 77.3555L174.436 58.1758C174.436 52.9569 178.675 48.7197 183.896 48.7197C189.117 48.7197 193.355 52.9569 193.355 58.1758L193.355 77.3555C193.355 82.5744 189.117 86.8115 183.896 86.8115C178.675 86.8115 174.436 82.5744 174.436 77.3555Z" fill="#2D73C3"/>
<path fill-rule="evenodd" clip-rule="evenodd" d="M61.7824 114.503L61.7824 102.77C61.7824 97.551 66.0212 93.3139 71.2422 93.3139C76.4632 93.3139 80.702 97.551 80.702 102.77L80.702 114.503C80.702 119.722 76.4632 123.959 71.2422 123.959C66.0212 123.959 61.7824 119.722 61.7824 114.503Z" fill="#2D73C3"/>
<path fill-rule="evenodd" clip-rule="evenodd" d="M98.3164 99.1804L98.3164 66.7682C98.3164 61.5493 102.555 57.3122 107.776 57.3122C112.997 57.3122 117.236 61.5493 117.236 66.7682L117.236 99.1804C117.236 104.399 112.997 108.636 107.776 108.636C102.555 108.636 98.3164 104.399 98.3164 99.1804Z" fill="#2D73C3"/>
<path fill-rule="evenodd" clip-rule="evenodd" d="M22.263 93.1396L22.263 79.4783C22.263 74.2593 26.5018 70.0222 31.7228 70.0222C36.9439 70.0222 41.1827 74.2593 41.1826 79.4783L41.1826 93.1396C41.1826 98.3586 36.9439 102.596 31.7228 102.596C26.5018 102.596 22.263 98.3586 22.263 93.1396Z" fill="#2D73C3"/>
<path fill-rule="evenodd" clip-rule="evenodd" d="M212.785 108.924L212.785 96.2676C212.785 91.0487 217.024 86.8116 222.245 86.8116C227.466 86.8116 231.705 91.0487 231.705 96.2676L231.705 108.924C231.705 114.143 227.466 118.38 222.245 118.38C217.024 118.38 212.785 114.143 212.785 108.924Z" fill="#2D73C3"/>
<path fill-rule="evenodd" clip-rule="evenodd" d="M0.000123926 1.96757e-05L332.594 4.8752e-05L332.594 11.9928C332.594 18.7873 327.151 24.3037 320.446 24.3037L316.105 24.3037C315.805 24.2747 315.502 24.2598 315.194 24.2598C314.887 24.2598 314.583 24.2747 314.284 24.3037C309.931 24.7259 306.436 28.1414 305.828 32.4925C305.767 32.9348 305.735 51.4074 305.735 51.8669L305.735 58.2704C305.085 62.9213 301.136 66.5032 296.369 66.5032C291.147 66.5032 286.909 62.2077 286.909 56.9168L286.909 56.6944C286.94 56.3772 286.956 56.0555 286.956 55.73L286.956 38.0956C286.956 37.7701 286.94 37.4484 286.909 37.1312C286.456 32.5512 282.817 28.9168 278.274 28.5412C278.018 28.52 277.758 28.5091 277.496 28.5091C277.234 28.5091 276.975 28.5199 276.718 28.5412C271.928 28.9371 268.144 32.9555 268.039 37.8854C268.037 37.9553 268.036 38.0253 268.036 38.0956L268.036 48.3708C267.926 53.5647 263.731 57.747 258.579 57.747C253.451 57.747 249.27 53.6025 249.123 48.4413L249.123 31.0148C249.123 30.921 249.122 30.8274 249.119 30.7341C249.061 28.6829 248.365 26.7924 247.226 25.2588C245.735 23.2504 243.484 21.8541 240.906 21.5106C240.5 21.4564 240.085 21.4284 239.663 21.4284C239.242 21.4284 238.827 21.4564 238.42 21.5106C234.627 22.0161 231.539 24.8021 230.543 28.4634C230.355 29.1531 230.241 29.8738 230.211 30.6162C230.206 30.7484 230.203 30.8813 230.203 31.0148L230.203 56.9168C230.203 57.0503 230.206 57.1832 230.211 57.3155L230.211 75.3685C230.211 80.6594 225.973 84.9549 220.752 84.9549C215.531 84.9549 211.292 80.6594 211.292 75.3685L211.292 57.8811C211.323 57.5639 211.339 57.2422 211.339 56.9168L211.339 37.9978C211.339 37.6723 211.323 37.3507 211.292 37.0335C210.847 32.5251 207.314 28.9329 202.87 28.4634C202.544 28.429 202.214 28.4114 201.879 28.4114C201.545 28.4114 201.214 28.429 200.889 28.4634C196.523 28.9247 193.036 32.4004 192.493 36.7979C192.467 37.0118 192.447 37.2279 192.435 37.4458C191.852 42.1713 187.869 45.8323 183.049 45.8323C177.92 45.8323 173.74 41.6879 173.593 36.5266L173.593 27.732C173.593 27.6382 173.592 27.5446 173.589 27.4513C173.459 22.8646 170.142 19.0809 165.806 18.2954C165.263 18.1969 164.704 18.1456 164.133 18.1456C163.562 18.1456 163.003 18.1969 162.46 18.2954C158.246 19.0589 154.994 22.6549 154.696 27.0677C154.681 27.2872 154.673 27.5087 154.673 27.732L154.673 56.9167C154.673 57.14 154.681 57.3616 154.696 57.5811L154.696 66.4886C154.696 71.7795 150.457 76.075 145.236 76.075C140.015 76.075 135.776 71.7795 135.776 66.4886L135.776 57.881C135.807 57.5639 135.823 57.2422 135.823 56.9167L135.823 17.9045C135.823 17.579 135.807 17.2573 135.776 16.9402C135.357 12.6933 132.197 9.2595 128.118 8.4829C127.55 8.37464 126.963 8.31803 126.364 8.31803C125.764 8.31803 125.178 8.37464 124.609 8.4829C120.524 9.2606 117.362 12.703 116.949 16.9581C116.919 17.2695 116.904 17.5852 116.904 17.9045L116.904 46.5243C116.434 51.3716 112.396 55.1643 107.49 55.1643C102.59 55.1643 98.5551 51.381 98.0772 46.5422L98.0772 24.7653C98.0772 24.4398 98.0612 24.1181 98.0299 23.801C97.6082 19.5318 94.4179 16.0842 90.3074 15.3317C89.759 15.2313 89.1942 15.1788 88.6174 15.1788C88.0406 15.1788 87.4758 15.2312 86.9274 15.3317C82.6369 16.1171 79.3488 19.839 79.1657 24.3666C79.1603 24.4988 79.1576 24.6317 79.1576 24.7653L79.1576 56.9168C79.1576 57.0503 79.1603 57.1832 79.1657 57.3154L79.1657 80.6465C79.1657 85.9374 74.9269 90.2329 69.7059 90.2329C64.4848 90.2329 60.2461 85.9374 60.2461 80.6465L60.2461 56.9581C60.2774 56.6409 60.2935 56.3192 60.2935 55.9937L60.2935 44.5216C60.2935 44.1961 60.2774 43.8744 60.2461 43.5572C59.8384 39.4295 56.8425 36.0699 52.9292 35.1716C52.255 35.0169 51.5537 34.9351 50.8336 34.9351C50.1135 34.9351 49.4122 35.0169 48.738 35.1716C44.9374 36.044 42.0021 39.2381 41.4627 43.2026C41.4041 43.6338 41.3737 44.0741 41.3737 44.5216L41.3737 55.9938C41.3737 56.4252 41.4019 56.85 41.4565 57.2664C41.2747 62.3957 37.1084 66.5032 32.0029 66.5032C27.1031 66.5032 23.0683 62.7199 22.5905 57.8811L22.5905 51.8617C22.5905 51.5363 22.5745 23.9638 22.5431 23.6466C22.0952 19.1113 18.5225 15.0636 14.0415 14.6289C13.7418 14.5999 13.4379 14.585 13.1307 14.585C12.8234 14.585 12.5196 14.5999 12.2198 14.6289L9.84511 14.6289C4.41147 14.6289 4.08565e-05 10.1585 4.13379e-05 4.65209L4.17446e-05 0.000183974L0.000123926 1.96757e-05Z" fill="#2D73C3"/>
</svg>
