<svg width="333" height="124" viewBox="0 0 333 124" fill="none" xmlns="http://www.w3.org/2000/svg">
<path fill-rule="evenodd" clip-rule="evenodd" d="M286.57 24.7788L286.57 42.674C286.57 47.893 290.809 52.1301 296.03 52.1301C301.251 52.1301 305.49 47.893 305.49 42.674L305.49 24.7788C305.49 19.5599 301.251 15.3228 296.03 15.3228C290.809 15.3228 286.57 19.5599 286.57 24.7788Z" fill="#09E1F6"/>
<path fill-rule="evenodd" clip-rule="evenodd" d="M250.444 46.6035L250.444 53.6283C250.444 58.8472 254.682 63.0843 259.904 63.0843C265.125 63.0843 269.363 58.8472 269.363 53.6283L269.363 46.6035C269.363 41.3846 265.125 37.1475 259.903 37.1475C254.682 37.1475 250.444 41.3846 250.444 46.6035Z" fill="#09E1F6"/>
<path fill-rule="evenodd" clip-rule="evenodd" d="M174.436 46.6035L174.436 65.7832C174.436 71.0021 178.675 75.2392 183.896 75.2392C189.117 75.2392 193.355 71.0021 193.355 65.7832L193.355 46.6035C193.355 41.3846 189.117 37.1475 183.896 37.1475C178.675 37.1475 174.436 41.3846 174.436 46.6035Z" fill="#09E1F6"/>
<path fill-rule="evenodd" clip-rule="evenodd" d="M61.7823 9.45607L61.7823 21.189C61.7823 26.4079 66.0211 30.6451 71.2422 30.6451C76.4632 30.6451 80.702 26.4079 80.702 21.189L80.702 9.45607C80.702 4.23711 76.4632 3.70565e-07 71.2422 8.27002e-07C66.0211 1.28344e-06 61.7823 4.23711 61.7823 9.45607Z" fill="#09E1F6"/>
<path fill-rule="evenodd" clip-rule="evenodd" d="M98.3164 24.7788L98.3164 57.191C98.3164 62.41 102.555 66.6471 107.776 66.6471C112.997 66.6471 117.236 62.41 117.236 57.191L117.236 24.7788C117.236 19.5599 112.997 15.3228 107.776 15.3228C102.555 15.3228 98.3164 19.5599 98.3164 24.7788Z" fill="#09E1F6"/>
<path fill-rule="evenodd" clip-rule="evenodd" d="M22.2631 30.8194L22.2631 44.4807C22.2631 49.6996 26.5018 53.9368 31.7229 53.9368C36.9439 53.9368 41.1827 49.6996 41.1827 44.4807L41.1827 30.8193C41.1827 25.6004 36.9439 21.3633 31.7229 21.3633C26.5018 21.3633 22.2631 25.6004 22.2631 30.8194Z" fill="#09E1F6"/>
<path fill-rule="evenodd" clip-rule="evenodd" d="M212.785 15.0357L212.785 27.6916C212.785 32.9106 217.024 37.1477 222.245 37.1477C227.466 37.1477 231.705 32.9106 231.705 27.6916L231.705 15.0357C231.705 9.8167 227.466 5.57959 222.245 5.57959C217.024 5.57959 212.785 9.8167 212.785 15.0357Z" fill="#09E1F6"/>
<path fill-rule="evenodd" clip-rule="evenodd" d="M0.000123926 123.959L332.594 123.959L332.594 111.966C332.594 105.172 327.151 99.6553 320.446 99.6553L316.105 99.6553C315.805 99.6843 315.502 99.6992 315.194 99.6992C314.887 99.6992 314.583 99.6843 314.284 99.6553C309.931 99.2331 306.436 95.8176 305.828 91.4665C305.767 91.0242 305.735 72.5516 305.735 72.0921L305.735 65.6885C305.085 61.0377 301.136 57.4558 296.369 57.4558C291.147 57.4558 286.909 61.7513 286.909 67.0422L286.909 67.2646C286.94 67.5818 286.956 67.9035 286.956 68.2289L286.956 85.8634C286.956 86.1889 286.94 86.5106 286.909 86.8277C286.456 91.4078 282.817 95.0422 278.274 95.4178C278.018 95.439 277.758 95.4499 277.496 95.4499C277.234 95.4499 276.975 95.4391 276.718 95.4178C271.928 95.0219 268.144 91.0035 268.039 86.0736C268.037 86.0037 268.036 85.9337 268.036 85.8634L268.036 75.5882C267.926 70.3942 263.731 66.212 258.579 66.212C253.451 66.212 249.27 70.3564 249.123 75.5177L249.123 92.9441C249.123 93.038 249.122 93.1316 249.119 93.2249C249.061 95.2761 248.365 97.1666 247.226 98.7002C245.735 100.709 243.484 102.105 240.906 102.448C240.5 102.503 240.085 102.531 239.663 102.531C239.242 102.531 238.827 102.503 238.42 102.448C234.627 101.943 231.539 99.1569 230.543 95.4956C230.355 94.8059 230.241 94.0852 230.211 93.3428C230.206 93.2106 230.203 93.0777 230.203 92.9441L230.203 67.0422C230.203 66.9087 230.206 66.7758 230.211 66.6435L230.211 48.5905C230.211 43.2996 225.973 39.0041 220.752 39.0041C215.531 39.0041 211.292 43.2996 211.292 48.5905L211.292 66.0779C211.323 66.3951 211.339 66.7168 211.339 67.0422L211.339 85.9612C211.339 86.2866 211.323 86.6083 211.292 86.9255C210.847 91.4339 207.314 95.0261 202.87 95.4956C202.544 95.53 202.214 95.5476 201.879 95.5476C201.545 95.5476 201.214 95.53 200.889 95.4956C196.523 95.0343 193.036 91.5586 192.493 87.1611C192.467 86.9472 192.447 86.7311 192.435 86.5131C191.852 81.7877 187.869 78.1267 183.049 78.1267C177.92 78.1267 173.74 82.2711 173.593 87.4324L173.593 96.227C173.593 96.3208 173.592 96.4144 173.589 96.5077C173.459 101.094 170.142 104.878 165.806 105.664C165.263 105.762 164.704 105.813 164.133 105.813C163.562 105.813 163.003 105.762 162.46 105.664C158.246 104.9 154.994 101.304 154.696 96.8913C154.681 96.6718 154.673 96.4503 154.673 96.227L154.673 67.0423C154.673 66.819 154.681 66.5974 154.696 66.3779L154.696 57.4704C154.696 52.1795 150.457 47.884 145.236 47.884C140.015 47.884 135.776 52.1795 135.776 57.4704L135.776 66.078C135.807 66.3951 135.823 66.7168 135.823 67.0423L135.823 106.055C135.823 106.38 135.807 106.702 135.776 107.019C135.357 111.266 132.197 114.699 128.118 115.476C127.55 115.584 126.963 115.641 126.364 115.641C125.764 115.641 125.178 115.584 124.609 115.476C120.524 114.698 117.362 111.256 116.949 107.001C116.919 106.69 116.904 106.374 116.904 106.055L116.904 77.4347C116.434 72.5874 112.396 68.7947 107.49 68.7947C102.59 68.7947 98.5551 72.578 98.0772 77.4168L98.0772 99.1937C98.0772 99.5192 98.0612 99.8409 98.0299 100.158C97.6082 104.427 94.4179 107.875 90.3074 108.627C89.759 108.728 89.1942 108.78 88.6174 108.78C88.0406 108.78 87.4758 108.728 86.9274 108.627C82.6369 107.842 79.3488 104.12 79.1657 99.5924C79.1603 99.4602 79.1576 99.3273 79.1576 99.1937L79.1576 67.0422C79.1576 66.9087 79.1603 66.7758 79.1657 66.6435L79.1657 43.3125C79.1657 38.0216 74.9269 33.7261 69.7059 33.7261C64.4848 33.7261 60.2461 38.0216 60.2461 43.3125L60.2461 67.0009C60.2774 67.3181 60.2935 67.6398 60.2935 67.9652L60.2935 79.4374C60.2935 79.7629 60.2774 80.0846 60.2461 80.4017C59.8384 84.5295 56.8425 87.8891 52.9292 88.7874C52.255 88.9421 51.5537 89.0239 50.8336 89.0239C50.1135 89.0239 49.4122 88.9421 48.738 88.7874C44.9374 87.915 42.0021 84.7209 41.4627 80.7564C41.4041 80.3252 41.3737 79.8849 41.3737 79.4374L41.3737 67.9652C41.3737 67.5338 41.4019 67.1089 41.4565 66.6925C41.2747 61.5633 37.1084 57.4558 32.0029 57.4558C27.1031 57.4558 23.0683 61.2391 22.5905 66.0779L22.5905 72.0972C22.5905 72.4227 22.5745 99.9952 22.5431 100.312C22.0952 104.848 18.5225 108.895 14.0415 109.33C13.7418 109.359 13.4379 109.374 13.1307 109.374C12.8234 109.374 12.5196 109.359 12.2198 109.33L9.84511 109.33C4.41147 109.33 4.08565e-05 113.801 4.13379e-05 119.307L4.17446e-05 123.959L0.000123926 123.959Z" fill="#09E1F6"/>
</svg>
