<svg width="333" height="124" viewBox="0 0 333 124" fill="none" xmlns="http://www.w3.org/2000/svg">
<path fill-rule="evenodd" clip-rule="evenodd" d="M46.024 24.7788L46.024 42.674C46.024 47.893 41.7853 52.1301 36.5642 52.1301C31.3432 52.1301 27.1044 47.893 27.1044 42.674L27.1044 24.7788C27.1044 19.5599 31.3432 15.3228 36.5642 15.3228C41.7853 15.3228 46.024 19.5599 46.024 24.7788Z" fill="#09E1F6"/>
<path fill-rule="evenodd" clip-rule="evenodd" d="M82.1507 46.6035L82.1507 53.6283C82.1507 58.8472 77.9119 63.0843 72.6909 63.0843C67.4698 63.0843 63.2311 58.8472 63.2311 53.6283L63.2311 46.6035C63.2311 41.3846 67.4698 37.1475 72.6909 37.1475C77.9119 37.1475 82.1507 41.3846 82.1507 46.6035Z" fill="#09E1F6"/>
<path fill-rule="evenodd" clip-rule="evenodd" d="M158.159 46.6035L158.159 65.7832C158.159 71.0021 153.92 75.2392 148.699 75.2392C143.478 75.2392 139.239 71.0021 139.239 65.7832L139.239 46.6035C139.239 41.3846 143.478 37.1475 148.699 37.1475C153.92 37.1475 158.159 41.3846 158.159 46.6035Z" fill="#09E1F6"/>
<path fill-rule="evenodd" clip-rule="evenodd" d="M270.812 9.45607L270.812 21.189C270.812 26.4079 266.573 30.6451 261.352 30.6451C256.131 30.6451 251.892 26.4079 251.892 21.189L251.892 9.45607C251.892 4.23711 256.131 3.70565e-07 261.352 8.27002e-07C266.573 1.28344e-06 270.812 4.23711 270.812 9.45607Z" fill="#09E1F6"/>
<path fill-rule="evenodd" clip-rule="evenodd" d="M234.278 24.7788L234.278 57.191C234.278 62.41 230.039 66.6471 224.818 66.6471C219.597 66.6471 215.358 62.41 215.358 57.191L215.358 24.7788C215.358 19.5599 219.597 15.3228 224.818 15.3228C230.039 15.3228 234.278 19.5599 234.278 24.7788Z" fill="#09E1F6"/>
<path fill-rule="evenodd" clip-rule="evenodd" d="M310.331 30.8194L310.331 44.4807C310.331 49.6996 306.093 53.9368 300.872 53.9368C295.651 53.9368 291.412 49.6996 291.412 44.4807L291.412 30.8193C291.412 25.6004 295.651 21.3633 300.872 21.3633C306.093 21.3633 310.331 25.6004 310.331 30.8194Z" fill="#09E1F6"/>
<path fill-rule="evenodd" clip-rule="evenodd" d="M119.809 15.0357L119.809 27.6916C119.809 32.9106 115.57 37.1477 110.349 37.1477C105.128 37.1477 100.89 32.9106 100.89 27.6916L100.89 15.0357C100.89 9.8167 105.128 5.57959 110.349 5.57959C115.57 5.57959 119.809 9.8167 119.809 15.0357Z" fill="#09E1F6"/>
<path fill-rule="evenodd" clip-rule="evenodd" d="M332.594 123.959L-7.88841e-06 123.959L-6.83997e-06 111.966C-6.24597e-06 105.172 5.44348 99.6553 12.1483 99.6553L16.4892 99.6553C16.789 99.6843 17.0928 99.6992 17.4001 99.6992C17.7073 99.6992 18.0111 99.6843 18.3109 99.6553C22.6629 99.2331 26.1581 95.8176 26.7661 91.4665C26.8279 91.0242 26.8598 72.5516 26.8598 72.0921L26.8598 65.6885C27.5097 61.0377 31.4582 57.4558 36.2259 57.4558C41.4469 57.4558 45.6857 61.7513 45.6857 67.0422L45.6857 67.2646C45.6544 67.5818 45.6383 67.9035 45.6383 68.2289L45.6383 85.8634C45.6383 86.1889 45.6543 86.5106 45.6857 86.8277C46.138 91.4078 49.777 95.0422 54.32 95.4178C54.5766 95.439 54.8362 95.4499 55.0981 95.4499C55.3601 95.4499 55.6196 95.4391 55.8763 95.4178C60.666 95.0219 64.4508 91.0035 64.5557 86.0736C64.5572 86.0037 64.5579 85.9337 64.5579 85.8634L64.5579 75.5882C64.6684 70.3942 68.8638 66.212 74.0155 66.212C79.1439 66.212 83.3246 70.3564 83.4713 75.5177L83.4713 92.9441C83.4713 93.038 83.4727 93.1316 83.4753 93.2249C83.5337 95.2761 84.2291 97.1666 85.3679 98.7002C86.8592 100.709 89.1109 102.105 91.6879 102.448C92.0948 102.503 92.5098 102.531 92.9312 102.531C93.3526 102.531 93.7676 102.503 94.1745 102.448C97.9672 101.943 101.055 99.1569 102.052 95.4956C102.239 94.8059 102.353 94.0852 102.383 93.3428C102.388 93.2106 102.391 93.0777 102.391 92.9441L102.391 67.0422C102.391 66.9087 102.388 66.7758 102.383 66.6435L102.383 48.5905C102.383 43.2996 106.622 39.0041 111.843 39.0041C117.064 39.0041 121.303 43.2996 121.303 48.5905L121.303 66.0779C121.271 66.3951 121.255 66.7168 121.255 67.0422L121.255 85.9612C121.255 86.2866 121.271 86.6083 121.303 86.9255C121.748 91.4339 125.281 95.0261 129.724 95.4956C130.05 95.53 130.38 95.5476 130.715 95.5476C131.049 95.5476 131.38 95.53 131.706 95.4956C136.071 95.0343 139.558 91.5586 140.101 87.1611C140.128 86.9472 140.147 86.7311 140.159 86.5131C140.743 81.7877 144.726 78.1267 149.546 78.1267C154.674 78.1267 158.855 82.2711 159.001 87.4324L159.001 96.227C159.001 96.3208 159.003 96.4144 159.005 96.5077C159.136 101.094 162.452 104.878 166.788 105.664C167.331 105.762 167.89 105.813 168.461 105.813C169.032 105.813 169.591 105.762 170.134 105.664C174.349 104.9 177.6 101.304 177.899 96.8913C177.914 96.6718 177.921 96.4503 177.921 96.227L177.921 67.0423C177.921 66.819 177.914 66.5974 177.899 66.3779L177.899 57.4704C177.899 52.1795 182.137 47.884 187.358 47.884C192.58 47.884 196.818 52.1795 196.818 57.4704L196.818 66.078C196.787 66.3951 196.771 66.7168 196.771 67.0423L196.771 106.055C196.771 106.38 196.787 106.702 196.818 107.019C197.238 111.266 200.397 114.699 204.476 115.476C205.045 115.584 205.631 115.641 206.231 115.641C206.83 115.641 207.417 115.584 207.985 115.476C212.07 114.698 215.233 111.256 215.645 107.001C215.675 106.69 215.691 106.374 215.691 106.055L215.691 77.4347C216.16 72.5874 220.199 68.7947 225.105 68.7947C230.005 68.7947 234.039 72.578 234.517 77.4168L234.517 99.1937C234.517 99.5192 234.533 99.8409 234.565 100.158C234.986 104.427 238.176 107.875 242.287 108.627C242.835 108.728 243.4 108.78 243.977 108.78C244.554 108.78 245.119 108.728 245.667 108.627C249.957 107.842 253.246 104.12 253.429 99.5924C253.434 99.4602 253.437 99.3273 253.437 99.1937L253.437 67.0422C253.437 66.9087 253.434 66.7758 253.429 66.6435L253.429 43.3125C253.429 38.0216 257.667 33.7261 262.889 33.7261C268.11 33.7261 272.348 38.0216 272.348 43.3125L272.348 67.0009C272.317 67.3181 272.301 67.6398 272.301 67.9652L272.301 79.4374C272.301 79.7629 272.317 80.0846 272.348 80.4017C272.756 84.5295 275.752 87.8891 279.665 88.7874C280.339 88.9421 281.041 89.0239 281.761 89.0239C282.481 89.0239 283.182 88.9421 283.856 88.7874C287.657 87.915 290.592 84.7209 291.132 80.7564C291.19 80.3252 291.221 79.8849 291.221 79.4374L291.221 67.9652C291.221 67.5338 291.192 67.1089 291.138 66.6925C291.32 61.5633 295.486 57.4558 300.591 57.4558C305.491 57.4558 309.526 61.2391 310.004 66.0779L310.004 72.0972C310.004 72.4227 310.02 99.9952 310.051 100.312C310.499 104.848 314.072 108.895 318.553 109.33C318.853 109.359 319.156 109.374 319.464 109.374C319.771 109.374 320.075 109.359 320.375 109.33L322.749 109.33C328.183 109.33 332.594 113.801 332.594 119.307L332.594 123.959L332.594 123.959Z" fill="#09E1F6"/>
</svg>
