<svg width="247" height="123" viewBox="0 0 247 123" fill="none" xmlns="http://www.w3.org/2000/svg">
<path fill-rule="evenodd" clip-rule="evenodd" d="M105.328 28.2281C104.393 36.8679 97.6434 45.9291 85.4024 46.341C78.7156 46.5661 71.0289 40.8727 66.1821 32.0137C55.0159 11.6045 34.5416 0.693473 13.706 0.150942C-3.12048 -0.287193 -5.50956 34.1812 12.4669 34.4391C21.0829 34.5628 29.4835 38.7838 34.5558 46.2144C34.5558 46.2144 35.6162 47.7214 36.0526 48.6801C36.4184 49.3623 36.7556 50.062 37.0628 50.7776C48.6121 73.4914 75.0847 85.4133 100.022 78.4496C101.955 77.9099 103.848 77.2617 105.692 76.5121C109.391 100.415 129.145 122.182 159.229 122.792C179.839 123.209 204.345 108.749 211.45 83.1358C211.488 82.9989 211.525 82.8617 211.562 82.7242C211.696 82.0819 212.357 81.5792 213.031 81.5474H214.679C216.72 81.5474 219.082 79.1883 219.082 77.1487C219.082 75.1093 216.72 72.7501 214.679 72.7501L209.986 72.686H208.36C206.318 72.686 203.957 70.3269 203.957 68.2873C203.957 66.2479 206.318 63.8887 208.36 63.8887H214.366L222.66 63.8246C224.701 63.8246 227.063 61.4655 227.063 59.4259C227.063 57.3865 224.701 55.0273 222.66 55.0273L214.366 54.9632H212.504C210.463 54.9632 208.102 52.6041 208.102 50.5645C208.102 48.5251 210.463 46.1659 212.504 46.1659H214.366L227.265 46.1018C229.307 46.1018 231.668 43.7427 231.668 41.7032C231.668 39.6637 229.307 37.3045 227.265 37.3045L214.366 37.2404H210.202C208.16 37.2404 205.799 34.8813 205.799 32.8418C205.799 30.8023 208.16 28.4431 210.202 28.4431L221.869 28.379C223.911 28.379 226.272 26.0199 226.272 23.9804C226.272 21.9409 223.911 19.5817 221.869 19.5817H215.981C214.688 19.5381 213.352 18.3261 213.271 17.1013V17.0103C213.271 16.5401 213.249 16.0725 213.206 15.6087C212.43 7.1971 204.78 4.41005e-05 196.244 4.41005e-05C187.238 4.41005e-05 179.218 8.01274 179.218 17.0103V67.1493C180.191 80.1658 167.743 91.0905 154.963 88.218C145.394 86.0671 137.887 76.4141 139.382 65.84V31.0377C139.404 30.7758 139.425 30.5134 139.444 30.2505V17.0103C139.444 7.8188 131.618 7.62612e-05 122.418 7.62612e-05H122.355C121.672 7.62612e-05 120.995 0.0461491 120.326 0.135232C114.272 0.921365 109.073 5.05783 106.725 10.5503C105.831 12.5685 105.329 14.7585 105.329 17.0103V28.2279L105.328 28.2281ZM226.388 81.6242C228.837 81.6242 230.826 79.6378 230.826 77.191C230.826 74.7442 228.837 72.7577 226.388 72.7577C223.939 72.7577 221.951 74.7442 221.951 77.191C221.951 79.6378 223.939 81.6242 226.388 81.6242ZM246.423 59.3633C246.423 56.9272 244.443 54.9494 242.005 54.9494H235.244C232.805 54.9494 230.826 56.9272 230.826 59.3633C230.826 61.7994 232.805 63.7772 235.244 63.7772H242.005C244.443 63.7772 246.423 61.7994 246.423 59.3633ZM239.816 23.8691C239.816 21.4331 237.837 19.4553 235.398 19.4553H233.21C230.772 19.4553 228.792 21.4331 228.792 23.8691C228.792 26.3052 230.772 28.283 233.21 28.283H235.398C237.837 28.283 239.816 26.3052 239.816 23.8691Z" fill="url(#paint0_linear_99_341)"/>
<defs>
<linearGradient id="paint0_linear_99_341" x1="-48.9979" y1="61.4002" x2="246.423" y2="61.4002" gradientUnits="userSpaceOnUse">
<stop stop-color="#2D73C3"/>
<stop offset="1" stop-color="#345EB9"/>
</linearGradient>
</defs>
</svg>
