<?xml version="1.0" encoding="UTF-8"?>
<svg xmlns="http://www.w3.org/2000/svg" id="Capa_1" data-name="Capa 1" viewBox="0 0 150 150">
  <defs>
    <style>
      .cls-1 {
        fill: #32266b;
      }

      .cls-2 {
        fill: #ffc709;
      }

      .cls-3 {
        fill: #2d2d93;
      }

      .cls-4 {
        fill: #ed1b33;
      }
    </style>
  </defs>
  <path class="cls-1" d="M49.37,82.5c.05,9.72.02,14.74.02,26.36v3c-.67-.23-1.01-.35-1.35-.47-9.03-3.21-18.18,1.79-20.31,11.11-2.27,9.94,3.84,20.01,13.73,22.64,12.66,3.36,25.71-4.15,29.16-16.8,4.6-16.86-2.07-35.46-16.36-45.6-.5-.35-1.01-.72-1.67-1.19-.31.1-.63.2-.9.29-.69.22-1.4.41-2.3.67Z"></path>
  <path class="cls-1" d="M115.37,77.39c-3.1-4.77-7.22-8.55-12.14-11.86-1.06.33-2.18.69-3.36,1.06v29.1c-.74-.24-1.3-.41-1.86-.6-8.12-2.64-16.87,1.96-19.29,10.14-2.8,9.47,2.15,19.59,11.35,23.19,12.56,4.91,27.3-2.32,31-15.54,3.54-12.62,1.43-24.51-5.7-35.49Z"></path>
  <path class="cls-2" d="M122.52,43.09c-.93.27-1.64.46-2.35.68-11.34,3.58-52.55,16.61-59.82,18.92-10.1,3.74-11.14,7.45-11.14,13.32q.1,4.68.12,6.5s.03,0,.04-.01c.91-.26,1.61-.45,2.3-.67.28-.09.59-.19.9-.29,9.1-2.88,32.54-10.29,47.29-14.95,1.18-.37,2.3-.73,3.36-1.06,3.82-1.21,6.77-2.14,8.27-2.62,10.1-3.74,10.93-7.46,11.14-13.32.12-3.26.12-1.96-.12-6.5Z"></path>
  <path class="cls-3" d="M122.63,23.31c-.93.27-1.64.46-2.35.68-11.34,3.58-52.55,16.61-59.82,18.92-10.1,3.74-11.14,7.45-11.14,13.32q.1,4.68.12,6.5c.93-.27,1.64-.46,2.35-.68,11.34-3.58,52.55-16.61,59.82-18.92,10.1-3.74,11.13-7.45,11.14-13.32,0-4.88,0-2.09-.12-6.5Z"></path>
  <path class="cls-4" d="M122.63,4.06c-.93.27-1.64.46-2.35.68-11.34,3.58-52.55,16.61-59.82,18.92-10.1,3.74-11.14,7.45-11.14,13.32q.1,4.68.12,6.5c.93-.27,1.64-.46,2.35-.68,11.34-3.58,52.55-16.61,59.82-18.92,10.1-3.74,11.14-7.45,11.14-13.32q-.1-4.68-.12-6.5Z"></path>
</svg>
